<svg viewBox="0 0 32 32" xmlns="http://www.w3.org/2000/svg" xmlns:xlink="http://www.w3.org/1999/xlink" width="32.000000" height="32.000000" fill="none">
	<defs>
		<linearGradient id="paint_linear_1" x1="15.9999981" x2="15.9999981" y1="0.00201416016" y2="31.9980106" gradientUnits="userSpaceOnUse">
			<stop stop-color="rgb(0,191,252)" offset="0" stop-opacity="1" />
			<stop stop-color="rgb(0,115,246)" offset="1" stop-opacity="1" />
		</linearGradient>
	</defs>
	<rect id="fi_5977575" width="32.000000" height="32.000000" x="0.000000" y="0.000000" fill="rgb(255,255,255)" fill-opacity="0" />
	<g id="Group">
		<path id="Vector" d="M25.5328 0.00201416L6.46319 0.00201416C2.89163 0.00201416 0 2.89364 0 6.4652L0 25.5388C0 29.1064 2.89163 31.998 6.46319 31.998L25.5368 31.998C29.1044 31.998 32 29.1064 32 25.5348L32 6.4652C31.996 2.89364 29.1044 0.00201416 25.5328 0.00201416Z" fill="url(#paint_linear_1)" fill-rule="nonzero" />
		<g id="Group">
			<path id="Vector" d="M15.8619 7.35309L16.5099 6.23321C16.9098 5.53328 17.8017 5.29734 18.5016 5.69728C19.2016 6.09721 19.4375 6.98909 19.0376 7.68903L12.7943 18.4957L17.3097 18.4957C18.7736 18.4957 19.5934 20.2155 18.9576 21.4073L5.71924 21.4073C4.91137 21.4073 4.26343 20.7594 4.26343 19.9515C4.26343 19.1437 4.91137 18.4957 5.71924 18.4957L9.4308 18.4957L14.1822 10.2607L12.6984 7.68503C12.2985 6.98509 12.5344 6.10121 13.2344 5.69328C13.9343 5.29334 14.8182 5.52928 15.2261 6.22921L15.8619 7.35309Z" fill="rgb(255,255,255)" fill-rule="nonzero" />
			<path id="Vector" d="M10.2469 22.9071L8.84706 25.3348C8.44713 26.0347 7.55525 26.2707 6.85531 25.8707C6.15538 25.4708 5.91944 24.5789 6.31938 23.879L7.35925 22.0792C8.53506 21.7153 9.49094 21.9952 10.2469 22.9071Z" fill="rgb(255,255,255)" fill-rule="nonzero" />
			<path id="Vector" d="M22.3011 18.5037L26.0886 18.5037C26.8965 18.5037 27.5444 19.1516 27.5444 19.9595C27.5444 20.7673 26.8965 21.4153 26.0886 21.4153L23.9849 21.4153L25.4047 23.879C25.8046 24.5789 25.5687 25.4628 24.8688 25.8707C24.1688 26.2707 23.2849 26.0347 22.877 25.3348C20.4853 21.1873 18.6895 18.0837 17.4977 16.016C16.2778 13.9122 17.1498 11.8005 18.0096 11.0846C18.9656 12.7244 20.3934 15.2001 22.3011 18.5037Z" fill="rgb(255,255,255)" fill-rule="nonzero" />
		</g>
	</g>
</svg>
